PathFileType	4	(X/Y/Z)	/Users/itak/Documents/Research/Walk-IL/dataset/trc/00433_00167.trc
DataRate	CameraRate	NumFrames	NumMarkers	Units	OrigDataRate	OrigDataStartFrame	OrigNumFrames
100.000000	100.000000	4	53	mm	100.000000	230	615
Frame#	Time	RPSI			LPSI			L3			STRN			T10			C7			CLAV			RBAK			LBAK			LSHO			LUPA			LAEL			LAOL			LWTS			LWPS			LFRA			LIFD			LHPS			LHTS			RSHO			RUPA			RAEL			RAOL			RWTS			RWPS			RFRA			RIFD			RHTS			RHPS			RBHD			LFHD			RFHD			LBHD			LHIP			RHIP			RASI			LASI			LKNE			LTHI			LANK			LTIP			LTOE			LMT1			LMT5			LHEE			RKNE			RTHI			RANK			RTIP			RTOE			RMT1			RMT5			RHEE			
		X1	Y1	Z1	X2	Y2	Z2	X3	Y3	Z3	X4	Y4	Z4	X5	Y5	Z5	X6	Y6	Z6	X7	Y7	Z7	X8	Y8	Z8	X9	Y9	Z9	X10	Y10	Z10	X11	Y11	Z11	X12	Y12	Z12	X13	Y13	Z13	X14	Y14	Z14	X15	Y15	Z15	X16	Y16	Z16	X17	Y17	Z17	X18	Y18	Z18	X19	Y19	Z19	X20	Y20	Z20	X21	Y21	Z21	X22	Y22	Z22	X23	Y23	Z23	X24	Y24	Z24	X25	Y25	Z25	X26	Y26	Z26	X27	Y27	Z27	X28	Y28	Z28	X29	Y29	Z29	X30	Y30	Z30	X31	Y31	Z31	X32	Y32	Z32	X33	Y33	Z33	X34	Y34	Z34	X35	Y35	Z35	X36	Y36	Z36	X37	Y37	Z37	X38	Y38	Z38	X39	Y39	Z39	X40	Y40	Z40	X41	Y41	Z41	X42	Y42	Z42	X43	Y43	Z43	X44	Y44	Z44	X45	Y45	Z45	X46	Y46	Z46	X47	Y47	Z47	X48	Y48	Z48	X49	Y49	Z49	X50	Y50	Z50	X51	Y51	Z51	X52	Y52	Z52	X53	Y53	Z53	

231	2.3	-691.0218505859375	962.8084106445312	-100.003776550293	-627.4779663085938	958.56884765625	-228.2689971923828	-654.2470703125	1061.99853515625	-132.4292297363281	-400.8656005859375	1243.373779296875	-17.27249145507812	-669.3531494140625	1185.8359375	-133.796630859375	-611.3158569335938	1448.58984375	-77.05494689941406	-432.7856140136719	1358.703247070312	-25.52398300170898	-705.6516723632812	1325.23046875	-20.6877555847168	-603.7703247070312	1411.61767578125	-184.3050079345703	-477.1633911132812	1433.027587890625	-214.4557647705078	-447.7510070800781	1325.49365234375	-319.6474304199219	-397.63427734375	1125.075317382812	-365.4953002929688	-491.3096008300781	1086.546997070312	-338.685791015625	-279.6355895996094	967.10205078125	-273.029541015625	-288.8592224121094	936.8543090820312	-340.0329895019531	-348.2147827148438	1050.706787109375	-358.3932189941406	-208.5123596191406	815.878662109375	-251.8251647949219	-251.7932891845703	866.302001953125	-325.5599060058594	-227.3037261962891	893.5842895507812	-264.2948608398438	-605.06787109375	1408.046508789062	94.20160675048828	-650.2499389648438	1347.800048828125	157.3194732666016	-674.9795532226562	1069.351928710938	227.2650299072266	-704.3026733398438	1042.44189453125	171.5900268554688	-536.9104614257812	890.8651733398438	255.6497344970703	-618.2935791015625	864.84326171875	279.9066162109375	-668.3882446289062	1012.9541015625	244.1903839111328	-512.9473876953125	736.0404052734375	286.5119018554688	-512.9725952148438	797.1549072265625	287.9432067871094	-587.38818359375	784.0799560546875	298.4512939453125	-569.7685546875	1636.919921875	41.68773651123047	-385.8325500488281	1661.155029296875	-52.03187561035156	-435.7311096191406	1655.742919921875	68.90006256103516	-516.204833984375	1649.115478515625	-130.3466644287109	-449.2815246582031	852.9930419921875	-273.0592041015625	-642.3009643554688	853.165771484375	76.78560638427734	-524.2288208007812	897.3660278320312	64.18442535400391	-402.9729309082031	894.68896484375	-158.9949645996094	-372.2689819335938	441.0561218261719	-242.6945343017578	-352.3165283203125	596.611328125	-243.0616455078125	-720.0370483398438	227.4885406494141	-372.783447265625	-488.2613525390625	338.0228576660156	-297.7535400390625	-622.9278564453125	57.30610275268555	-255.0846862792969	-672.2769775390625	114.9039535522461	-245.2532653808594	-635.375244140625	111.5441207885742	-349.0801391601562	-760.9938354492188	275.5110778808594	-337.8500671386719	-554.5233764648438	460.1706237792969	44.09094619750977	-590.53955078125	718.4586791992188	98.11270904541016	-572.829345703125	40.76166915893555	-7.203601837158203	-551.9954223632812	311.4090881347656	43.01392364501953	-355.7965698242188	48.85847473144531	19.5708179473877	-401.7708129882812	54.68202972412109	-35.43891906738281	-453.0333862304688	43.75796127319336	59.80358505249023	-619.0586547851562	32.85114669799805	-74.95733642578125	
232	2.31	-686.4368896484375	962.9810180664062	-97.21372222900391	-622.4628295898438	958.4976196289062	-225.2303924560547	-649.9520874023438	1062.12255859375	-129.302734375	-396.9164123535156	1244.058715820312	-14.28183841705322	-665.1552734375	1185.964477539062	-130.6017150878906	-607.4693603515625	1448.90966796875	-74.15034484863281	-428.9310302734375	1359.318359375	-22.77078247070312	-701.6891479492188	1325.525390625	-17.60216903686523	-600.0921020507812	1411.801635742188	-181.3274993896484	-473.6163024902344	1433.28564453125	-211.7285003662109	-444.5662536621094	1325.848876953125	-317.0630493164062	-394.4344177246094	1125.663452148438	-363.2080078125	-487.6768493652344	1086.708862304688	-336.0120239257812	-275.1981811523438	969.2899780273438	-269.6651916503906	-284.1333618164062	938.4867553710938	-336.4445190429688	-344.427734375	1051.701782226562	-355.6314392089844	-202.6380310058594	818.894287109375	-247.3549346923828	-246.4193267822266	868.42529296875	-321.4779357910156	-222.1982574462891	896.3432006835938	-260.4105224609375	-601.1491088867188	1408.623901367188	97.08611297607422	-646.2054443359375	1348.408203125	160.3363037109375	-670.2007446289062	1070.086791992188	230.9629058837891	-699.4608764648438	1042.928100585938	175.380615234375	-531.5084838867188	892.1683349609375	259.8020324707031	-612.8004760742188	865.9083862304688	284.0769958496094	-663.435546875	1013.755798339844	248.0287475585938	-506.9718627929688	737.535400390625	291.1587829589844	-507.2115173339844	798.6561279296875	292.4010009765625	-581.5884399414062	785.3245849609375	302.8956298828125	-565.42041015625	1637.505249023438	44.40872955322266	-381.3333129882812	1661.159301757812	-49.20981979370117	-431.3023986816406	1655.923706054688	71.69319915771484	-511.7117309570312	1649.553100585938	-127.6138153076172	-443.2758483886719	853.7734985351562	-269.0656433105469	-638.6541137695312	853.3052368164062	79.54877471923828	-520.3941650390625	897.4713745117188	67.83488464355469	-398.3922424316406	895.5179443359375	-154.7149810791016	-360.3831481933594	443.0434265136719	-235.5725860595703	-342.3623352050781	599.0628051757812	-237.0975646972656	-704.560302734375	222.0637969970703	-363.4627685546875	-474.9033813476562	337.7760925292969	-289.7776794433594	-599.9564819335938	56.68944931030273	-245.0517883300781	-651.6444702148438	112.3745422363281	-235.3000335693359	-615.2735595703125	109.8067398071289	-339.30712890625	-747.207275390625	268.7144470214844	-328.6902160644531	-553.4493408203125	459.9914245605469	45.50753402709961	-587.6786499023438	718.3585205078125	100.5213012695312	-572.8927612304688	40.68093872070312	-7.141190528869629	-551.4821166992188	311.2206420898438	43.97135925292969	-355.8977966308594	48.98286819458008	19.76790618896484	-401.8798828125	54.8348503112793	-35.24987411499023	-453.126953125	43.64316177368164	59.96764373779297	-619.0834350585938	32.82149887084961	-74.94632720947266	
233	2.32	-681.8165283203125	963.1375122070312	-94.41370391845703	-617.4586791992188	958.388427734375	-222.2124328613281	-645.626708984375	1062.202514648438	-126.2108001708984	-392.9454650878906	1244.685424804688	-11.27759075164795	-660.9221801757812	1186.043334960938	-127.44140625	-603.6023559570312	1449.191528320312	-71.29499053955078	-425.0648803710938	1359.873413085938	-20.00446510314941	-697.7130737304688	1325.770874023438	-14.59601402282715	-596.356201171875	1411.940185546875	-178.3941955566406	-469.9925842285156	1433.478271484375	-209.0049133300781	-441.31640625	1326.135131835938	-314.478515625	-391.2267456054688	1126.137329101562	-360.9267272949219	-484.0862121582031	1086.844604492188	-333.3986206054688	-271.0265502929688	971.07958984375	-266.4530334472656	-279.6903076171875	939.82177734375	-333.0445861816406	-340.7488708496094	1052.505249023438	-352.9491882324219	-197.3431091308594	821.3613891601562	-243.1783599853516	-241.4800109863281	870.1563110351562	-317.6471862792969	-217.5155792236328	898.589599609375	-256.7383728027344	-597.267333984375	1409.156127929688	99.93293762207031	-642.2438354492188	1348.963745117188	163.2860717773438	-665.5877685546875	1070.730834960938	234.4729156494141	-694.7626342773438	1043.351684570312	178.9643859863281	-526.2665405273438	893.3761596679688	263.7153015136719	-607.4641723632812	866.8504028320312	287.9684448242188	-658.65380859375	1014.456970214844	251.6578063964844	-501.1195678710938	738.9271240234375	295.4584045410156	-501.6023254394531	800.055419921875	296.5554809570312	-575.9278564453125	786.4391479492188	307.0007934570312	-561.1328735351562	1638.064575195312	47.04331207275391	-376.8743896484375	1661.147094726562	-46.42098617553711	-426.9417724609375	1656.118774414062	74.43408966064453	-507.2294311523438	1649.924682617188	-124.9477386474609	-437.3588562011719	854.5020141601562	-265.1792297363281	-634.9016723632812	853.45361328125	82.30816650390625	-516.4597778320312	897.5435791015625	71.39057159423828	-393.7872009277344	896.2852172851562	-150.5731811523438	-348.7468872070312	445.0270385742188	-228.5435180664062	-332.6929931640625	601.466796875	-231.2748260498047	-688.4984130859375	215.8874816894531	-354.2074279785156	-461.4663391113281	337.2829284667969	-281.8661499023438	-576.4454345703125	55.83442687988281	-234.9829711914062	-630.4641723632812	109.4707565307617	-225.3475341796875	-594.5776977539062	107.6733703613281	-329.508544921875	-732.9232177734375	261.0367431640625	-319.6356201171875	-552.4158935546875	459.8236389160156	46.86603546142578	-584.7294311523438	718.2675170898438	102.8945846557617	-572.9533081054688	40.60103988647461	-7.080345630645752	-550.9888916015625	311.0473937988281	44.88296127319336	-356.0017700195312	49.13018417358398	19.98457717895508	-401.9784851074219	54.99062347412109	-35.06478881835938	-453.2273254394531	43.53156280517578	60.13462829589844	-619.1094360351562	32.799072265625	-74.93062591552734	
234	2.33	-677.1605834960938	963.274658203125	-91.61135864257812	-612.460205078125	958.246337890625	-219.220458984375	-641.2723999023438	1062.237182617188	-123.1548385620117	-388.9468383789062	1245.25146484375	-8.262092590332031	-656.6558227539062	1186.076904296875	-124.3162460327148	-599.7086181640625	1449.435546875	-68.48162841796875	-421.1798095703125	1360.366943359375	-17.22421264648438	-693.7206420898438	1325.969604492188	-11.66010093688965	-592.5631713867188	1412.0361328125	-175.4987945556641	-466.2926940917969	1433.607421875	-206.2857818603516	-437.9937744140625	1326.349731445312	-311.8888549804688	-387.9919738769531	1126.49365234375	-358.6367492675781	-480.5423583984375	1086.958251953125	-330.8406677246094	-267.103515625	972.4478149414062	-263.3914489746094	-275.5184631347656	940.839599609375	-329.8363037109375	-337.1631469726562	1053.107666015625	-350.3385925292969	-192.6054534912109	823.2481689453125	-239.3058624267578	-236.96142578125	871.4682006835938	-314.0754089355469	-213.2324523925781	900.2968139648438	-253.2826995849609	-593.4104614257812	1409.637817382812	102.7503433227539	-638.3480834960938	1349.461181640625	166.1766967773438	-661.1231079101562	1071.280029296875	237.808837890625	-690.203125	1043.7119140625	182.3604125976562	-521.1799926757812	894.4728393554688	267.3856811523438	-602.281005859375	867.6625366210938	291.5950317382812	-654.0263671875	1015.05322265625	255.0915985107422	-495.4005432128906	740.1971435546875	299.4112243652344	-496.146728515625	801.3341064453125	300.4038696289062	-570.4091186523438	787.4132690429688	310.7784118652344	-556.8971557617188	1638.59716796875	49.60281753540039	-372.4502563476562	1661.118408203125	-43.65808868408203	-422.6380920410156	1656.323486328125	77.13361358642578	-502.7549133300781	1650.229614257812	-122.3355331420898	-431.5214233398438	855.1826171875	-261.4062194824219	-631.04833984375	853.6038818359375	85.05941009521484	-512.4315185546875	897.58154296875	74.85409545898438	-389.1526489257812	896.9954223632812	-146.5684356689453	-337.3609924316406	446.9981689453125	-221.58740234375	-323.3199157714844	603.8074340820312	-225.5867614746094	-671.80517578125	209.0085754394531	-345.0195007324219	-447.9323120117188	336.5581359863281	-274.001708984375	-552.451171875	54.81108474731445	-224.8191833496094	-608.7778930664062	106.2617645263672	-215.3648376464844	-573.3038330078125	105.1782836914062	-319.6474914550781	-718.07666015625	252.5399017333984	-310.7089538574219	-551.403564453125	459.6660461425781	48.16630554199219	-581.6856079101562	718.1795043945312	105.2297973632812	-573.0108642578125	40.52399444580078	-7.021659851074219	-550.5029907226562	310.8893432617188	45.74606704711914	-356.1116638183594	49.30379104614258	20.22205543518066	-402.0661315917969	55.14565277099609	-34.88834762573242	-453.3327026367188	43.42507934570312	60.29956436157227	-619.1360473632812	32.78363037109375	-74.91155242919922	
